<svg width="81" height="20" viewBox="0 0 81 20" fill="none" xmlns="http://www.w3.org/2000/svg">
<path fill-rule="evenodd" clip-rule="evenodd" d="M20.1561 15.4754C20.1561 15.4754 20.0021 16.158 20.6758 16.2145C21.0164 16.2247 21.3786 16.2247 21.7592 16.2247C24.1881 16.2247 26.4101 15.3896 26.4599 13.3382C26.5057 11.5201 24.7765 10.9722 22.6927 10.9722H21.2224L20.1561 15.4754ZM31.176 13.4385C31.176 16.1593 28.7345 19.7488 20.2903 19.307C19.3007 19.2547 18.6926 19.1783 17.7999 18.9731C14.6193 18.2408 15.7381 14.7299 15.7381 14.7299L18.9744 1.14377C20.7553 0.872326 22.7524 0.707507 24.8039 0.707507C29.3202 0.707507 32.3128 2.21509 32.3128 5.03655C32.3128 7.67833 29.5872 9.11412 27.5241 9.43951C29.1591 9.55378 31.176 10.7343 31.176 13.4385ZM22.9195 3.86243L22.1031 7.36271C22.1031 7.36271 21.9003 8.11204 22.5919 8.11204H23.5442C25.9942 8.11204 27.6912 7.21403 27.7338 5.63211C27.7684 4.32715 26.5674 3.76175 24.8619 3.76175C24.0824 3.76175 23.2637 3.81145 22.9195 3.86243ZM51.8237 19.356H49.143L53.3936 1.24461C55.1516 0.860175 57.002 0.784138 59.145 0.801129C64.3758 0.82067 66.7737 2.69272 66.7737 5.95597C66.7737 8.94607 64.2578 13.3456 57.0231 13.3456C56.2821 13.3456 55.6448 13.2662 55.1848 13.2373C55.1848 13.2373 54.5955 15.7555 54.245 17.2393C53.8034 19.102 52.5095 19.356 51.8237 19.356ZM57.6392 3.99428L56.4575 9.0442C56.4575 9.0442 56.0765 10.1176 57.4368 10.1176C57.6047 10.1244 57.7869 10.1291 57.9875 10.1291C61.0286 10.107 62.5904 8.22988 62.5904 6.28646C62.5904 4.37447 61.1946 3.90423 59.5143 3.90423C58.6562 3.90423 58.0122 3.94246 57.6392 3.99428ZM38.5318 11.3543C38.5318 14.2132 40.2861 16.0411 43.2958 16.0411C44.5349 16.0411 45.889 15.8444 47.7151 14.5768L46.9993 17.6217C46.9993 17.6217 46.8005 18.6319 45.6143 19.0244C44.6507 19.3663 43.6342 19.5218 42.0935 19.5218C37.8016 19.5218 33.6134 17.5219 33.6134 11.596C33.6134 6.05295 37.3662 0.418945 44.6108 0.418945C46.0321 0.418945 47.037 0.608402 48.3237 1.00133C50.3079 1.60709 50.5489 2.62404 50.4174 3.23361C50.2832 3.85763 49.8151 5.35714 49.8151 5.35714C48.567 4.30196 46.393 4.00503 45.1844 4.00503C40.5536 4.00503 38.5318 8.40629 38.5318 11.3543ZM7.934 8.98796C6.31472 7.32617 4.60659 6.32154 3.34546 5.74893C3.34546 5.74893 2.73105 5.46049 2.41016 5.29482C2.87781 4.29996 3.49311 3.58929 3.49311 3.58929C3.58018 3.48182 5.44405 1.40883 7.08352 2.13693C8.87424 2.89943 9.05645 6.39928 7.934 8.98796ZM74.4589 8.98796C72.8396 7.32617 71.1315 6.32154 69.8703 5.74893C69.8703 5.74893 69.2559 5.46049 68.935 5.29482C69.4027 4.29996 70.018 3.58929 70.018 3.58929C70.1051 3.48182 71.9689 1.40883 73.6084 2.13693C75.3991 2.89943 75.5813 6.39928 74.4589 8.98796Z" fill="white"/>
<path fill-rule="evenodd" clip-rule="evenodd" d="M13.4894 11.6344C11.7436 14.2737 6.98091 17.282 5.63136 17.7332C3.00677 18.7726 1.22997 16.8449 1.07828 16.6427C0.588634 16.0459 0.469702 15.9197 0.232735 15.4843C0.186509 15.5565 5.27097 13.3179 7.09266 10.4217C9.06559 7.93409 9.23748 3.05451 7.08278 2.13696C7.73444 2.44749 9.26979 3.28177 10.6552 4.45038C12.0375 5.55951 13.2323 7.01399 13.2067 6.9953C13.3525 7.18263 15.084 9.22248 13.4894 11.6344ZM79.7308 6.9953C79.8767 7.18263 81.6081 9.22248 80.0136 11.6344C78.2682 14.2737 73.505 17.282 72.1555 17.7332C69.5309 18.7726 67.7541 16.8449 67.6024 16.6427C67.1128 16.0459 66.9938 15.9197 66.7569 15.4843C66.7106 15.5565 71.7956 13.3179 73.6168 10.4217C75.5897 7.93409 75.7616 3.05451 73.6069 2.13696C74.2586 2.44749 75.7939 3.28177 77.1794 4.45038C78.5617 5.55951 79.7568 7.01399 79.7308 6.9953Z" fill="#FF7800"/>
</svg>
